<?xml version="1.0" standalone="no"?>
<!DOCTYPE svg PUBLIC "-//W3C//DTD SVG 20010904//EN"
 "http://www.w3.org/TR/2001/REC-SVG-20010904/DTD/svg10.dtd">
<svg version="1.0" xmlns="http://www.w3.org/2000/svg"
 width="457.000000pt" height="463.000000pt" viewBox="0 0 457.000000 463.000000"
 preserveAspectRatio="xMidYMid meet">

<g transform="translate(0.000000,463.000000) scale(0.100000,-0.100000)"
fill="#000000" stroke="none">
<path d="M1990 4620 c-237 -11 -345 -34 -378 -81 -7 -10 -27 -22 -44 -27 -37
-9 -50 -32 -19 -32 26 0 35 -33 29 -102 -4 -40 -12 -57 -32 -75 -15 -13 -35
-23 -45 -23 -20 0 -38 -19 -35 -35 11 -56 14 -58 83 -53 71 6 124 -3 103 -16
-6 -4 -12 -16 -12 -26 0 -17 5 -19 32 -13 20 4 29 3 25 -4 -4 -6 -28 -14 -54
-18 -27 -4 -64 -14 -83 -22 -39 -16 -242 -73 -280 -78 -14 -2 -69 -26 -122
-54 -53 -28 -102 -51 -108 -51 -12 0 -61 54 -71 79 -4 9 -1 26 7 38 20 31 8
53 -30 54 -17 0 -44 3 -59 5 -18 3 -37 -2 -54 -16 -14 -11 -32 -20 -40 -20 -7
0 -16 -7 -20 -16 -16 -43 -129 -155 -190 -190 -96 -55 -163 -129 -215 -235
-15 -33 -58 -103 -94 -157 -104 -152 -168 -301 -178 -415 -4 -38 -13 -105 -21
-150 -14 -76 -36 -217 -49 -312 -13 -96 -18 -481 -7 -520 6 -22 18 -104 26
-183 9 -78 22 -162 30 -185 16 -49 29 -134 46 -302 11 -110 15 -125 46 -172
19 -29 42 -57 52 -62 10 -6 35 -44 57 -86 21 -41 42 -75 46 -75 5 0 8 -6 8
-14 0 -21 113 -161 224 -276 56 -58 111 -116 122 -130 12 -14 47 -47 78 -75
32 -27 74 -65 94 -83 20 -18 55 -46 77 -61 40 -28 295 -161 308 -161 5 0 36
-13 71 -30 68 -31 123 -53 196 -76 249 -81 219 -78 735 -81 499 -4 466 -7 669
53 26 8 53 14 59 14 5 0 33 11 61 24 28 14 77 36 110 51 82 36 161 89 225 149
31 29 79 68 106 86 28 18 71 51 98 73 26 21 80 64 121 95 137 106 297 255 385
361 48 58 122 143 163 187 84 90 158 198 177 257 7 20 16 37 21 37 4 0 10 8
13 18 3 9 17 48 31 87 14 38 26 78 26 87 0 10 6 32 14 50 44 103 47 153 44
613 l-3 440 -28 115 c-36 149 -77 278 -98 310 -9 14 -25 48 -34 76 -9 27 -27
62 -40 78 -16 18 -25 46 -30 86 -4 33 -7 63 -8 67 -2 19 -74 85 -114 105 -24
12 -43 29 -43 38 0 19 -23 65 -70 140 -20 30 -42 68 -50 84 -15 29 -99 102
-148 127 -15 8 -68 55 -118 104 -51 50 -114 106 -140 125 -45 32 -193 120
-239 141 -11 5 -49 25 -85 45 -84 45 -253 111 -405 159 -66 20 -145 45 -175
55 -30 10 -113 32 -183 50 -147 35 -298 44 -567 30z m-410 -575 c0 -8 -9 -15
-20 -15 -11 0 -20 7 -20 15 0 8 9 15 20 15 11 0 20 -7 20 -15z m210 -54 c0
-16 7 -34 15 -41 25 -20 18 -40 -14 -40 -16 0 -44 -7 -64 -15 -19 -8 -59 -19
-88 -24 -254 -47 -528 -171 -631 -287 -11 -12 -37 -24 -58 -28 -50 -8 -106
-67 -90 -96 5 -10 10 -32 10 -48 0 -23 -4 -28 -21 -28 -12 1 -24 -5 -26 -11
-7 -20 25 -27 42 -9 9 9 22 16 29 16 7 0 42 30 78 68 75 76 105 102 116 102 5
0 40 24 78 53 38 28 78 58 89 65 91 58 366 153 365 126 -1 -5 -28 -22 -60 -38
-65 -31 -76 -54 -39 -80 26 -17 51 -10 47 14 -2 9 3 24 11 33 16 20 45 23 38
4 -9 -24 19 -112 37 -115 10 -2 49 4 88 13 51 13 72 15 81 6 6 -6 7 -11 2 -11
-4 0 -1 -8 8 -18 10 -11 14 -26 10 -40 -4 -18 -12 -22 -49 -22 -23 0 -45 -4
-48 -9 -3 -4 -20 -11 -38 -15 -17 -3 -39 -13 -49 -22 -11 -10 -19 -12 -24 -5
-8 14 16 46 35 46 8 0 15 7 15 15 0 23 -150 14 -268 -15 -24 -6 -27 -4 -27 18
0 14 5 29 11 33 6 3 9 17 6 31 -5 25 1 30 40 36 35 5 38 15 8 23 -19 5 -32 2
-39 -7 -13 -17 -98 -51 -116 -47 -7 2 -16 -8 -20 -22 -4 -17 -8 -21 -14 -12
-8 14 -52 16 -61 3 -3 -5 5 -17 17 -25 12 -9 17 -16 11 -16 -7 0 -21 -21 -33
-47 -19 -43 -19 -47 -4 -65 18 -19 50 -23 73 -9 8 5 17 29 20 53 7 50 20 55
39 14 19 -38 3 -72 -43 -92 -50 -20 -82 -17 -111 11 -77 78 -111 62 -256 -119
-165 -206 -291 -426 -338 -589 -58 -205 -86 -443 -71 -608 6 -63 11 -145 11
-183 0 -152 61 -404 143 -596 91 -212 251 -446 406 -592 239 -227 390 -322
666 -419 114 -40 110 -54 -5 -18 -487 152 -895 520 -1122 1014 -86 188 -98
217 -123 309 -31 114 -33 186 -5 211 25 23 28 90 4 99 -29 11 -81 6 -94 -9 -7
-8 -20 -15 -30 -15 -24 0 -30 -20 -30 -94 0 -35 -6 -70 -14 -81 -7 -11 -16
-33 -20 -49 -4 -16 -13 -38 -21 -49 -13 -18 -15 -14 -34 49 -12 38 -28 98 -36
134 l-15 65 4 -85 c6 -109 2 -97 -29 83 -20 120 -25 181 -25 320 1 95 5 204
10 242 6 39 15 108 21 155 27 215 112 484 204 650 29 52 67 122 85 155 42 76
109 155 127 148 7 -3 13 -1 13 5 0 5 11 20 24 33 13 13 22 28 19 35 -4 12 72
84 165 156 l53 41 30 -36 c49 -60 64 -64 113 -30 60 43 142 87 216 118 36 14
79 32 95 40 90 40 368 112 443 114 29 1 32 -2 32 -28z m-840 -60 c0 -13 -26
-32 -33 -24 -14 13 -6 33 13 33 11 0 20 -4 20 -9z m-55 -41 c0 -8 -8 -16 -17
-18 -13 -2 -18 3 -18 18 0 15 5 20 18 18 9 -2 17 -10 17 -18z m-41 -28 c2 -4
-30 -35 -72 -67 -42 -33 -114 -96 -159 -139 -46 -44 -83 -77 -83 -73 0 16 138
157 214 219 83 69 91 74 100 60z m1451 -361 c17 -4 -35 -7 -115 -8 -144 -2
-200 -7 -358 -37 -112 -22 -193 -64 -150 -78 19 -7 -2 -28 -28 -28 -21 0 -24
5 -24 35 0 28 5 37 30 50 89 46 531 91 645 66z m-1364 -15 c-6 -8 -20 -16 -31
-19 -17 -4 -18 -2 -9 14 5 10 19 19 31 19 16 0 18 -3 9 -14z m1553 -25 c3 -4
-6 -6 -19 -3 -14 2 -25 6 -25 8 0 8 39 4 44 -5z m211 -13 c17 -6 35 -15 40
-20 15 -15 -33 1 -75 24 -34 18 -30 18 35 -4z m-75 -18 c0 -21 -180 -111 -218
-109 -9 0 -2 5 16 10 19 6 68 32 110 59 81 51 92 56 92 40z m390 -61 c0 5 -12
19 -26 30 -15 12 -23 21 -19 21 18 0 178 -135 255 -216 138 -144 234 -271 299
-394 34 -63 61 -120 61 -126 0 -7 13 -27 30 -45 33 -37 75 -118 65 -127 -4 -4
-15 4 -27 18 l-20 25 6 -33 c3 -18 15 -45 27 -61 34 -46 49 -169 50 -413 1
-210 -6 -271 -33 -305 -5 -7 -7 -16 -4 -21 5 -9 -10 -63 -31 -112 -3 -8 -7
-20 -8 -25 -4 -18 -151 -277 -202 -355 -94 -146 -247 -274 -451 -379 -256
-130 -438 -178 -642 -168 -244 12 -470 91 -758 264 -69 41 -247 199 -325 287
-78 89 -129 168 -194 298 -58 118 -84 201 -125 393 -15 75 -4 421 17 520 20
92 142 400 188 478 48 79 58 91 151 188 93 97 153 133 301 179 39 12 109 35
156 52 96 33 128 33 140 1 8 -21 5 -23 -29 -23 -26 -1 -32 -3 -22 -9 8 -5 114
-11 235 -14 212 -4 394 -27 403 -49 2 -4 14 -8 26 -8 41 0 36 -13 -12 -35 -47
-22 -96 -70 -87 -85 2 -4 27 -10 55 -14 28 -4 57 -9 65 -12 16 -6 21 -49 7
-58 -5 -3 -53 13 -108 34 -54 22 -110 40 -124 40 -14 0 -32 5 -40 10 -11 7 0
10 38 10 29 0 63 5 75 11 37 20 87 68 77 74 -6 3 -14 3 -20 0 -5 -3 -19 -1
-29 5 -11 6 -33 12 -48 15 -15 2 -50 9 -76 15 -52 13 -330 0 -442 -21 -66 -12
-223 -82 -282 -125 -83 -62 -181 -150 -239 -214 -67 -76 -161 -240 -194 -340
-58 -172 -87 -533 -56 -688 18 -85 69 -246 84 -266 5 -6 15 -29 22 -51 32 -97
193 -315 311 -419 156 -137 388 -264 569 -313 101 -27 114 -28 340 -28 l235 0
110 33 c61 18 126 41 145 51 19 11 54 24 77 30 79 21 222 130 319 242 96 112
172 207 178 223 4 12 0 23 -10 30 -16 12 -13 35 11 101 8 22 -15 -8 -84 -107
-43 -61 -156 -194 -196 -231 -31 -28 -81 -47 -124 -47 -31 0 -41 -4 -46 -20
-7 -23 -39 -47 -120 -88 -61 -32 -138 -55 -392 -119 -173 -44 -173 -44 -173
62 0 41 3 80 6 89 9 23 47 20 70 -5 16 -17 27 -20 79 -16 203 14 350 84 593
282 66 54 144 144 138 160 -3 8 2 18 10 23 8 5 17 25 20 46 2 20 11 48 20 61
9 14 13 33 9 45 -5 16 -2 20 14 20 14 0 21 6 21 19 0 11 4 22 9 26 16 9 8 46
-12 56 -10 6 -27 7 -38 4 -17 -6 -19 -12 -13 -56 6 -45 5 -49 -15 -49 -11 0
-21 -4 -21 -10 0 -5 -8 -10 -19 -10 -24 0 -40 -68 -19 -81 9 -6 9 -9 1 -9 -26
0 -43 13 -43 34 0 17 -2 18 -10 6 -9 -13 -10 -13 -10 0 0 10 -11 16 -34 17
-39 2 -64 -20 -72 -62 -8 -43 -32 -74 -54 -68 -11 3 -17 9 -14 14 11 18 -24 8
-42 -12 -18 -20 -18 -20 9 -14 31 8 56 -14 57 -50 0 -18 5 -20 38 -17 27 3 42
-1 52 -13 13 -16 11 -21 -24 -51 -22 -19 -50 -34 -65 -34 -14 0 -42 -12 -63
-27 l-39 -26 -45 21 c-56 28 -68 28 -54 2 8 -15 6 -23 -12 -41 -37 -35 -155
-85 -268 -113 -133 -33 -158 -34 -204 -12 -20 9 -64 22 -97 29 -55 10 -62 14
-75 45 -8 19 -14 45 -14 57 0 16 -9 26 -30 35 -22 9 -33 23 -41 51 -7 21 -20
41 -30 44 -74 24 -297 220 -361 319 -21 33 -47 89 -58 124 -20 66 -20 100 0
46 43 -112 77 -161 195 -277 114 -113 208 -182 283 -208 20 -7 32 -18 32 -29
0 -11 4 -21 10 -25 5 -3 7 -11 4 -18 -11 -28 218 -75 306 -62 108 15 232 51
317 92 86 41 93 46 93 74 0 37 -6 37 -127 -6 -191 -67 -299 -77 -458 -39 -115
27 -150 61 -129 123 8 21 17 27 46 29 21 2 47 -2 59 -9 21 -11 21 -13 6 -24
-16 -11 -16 -14 -1 -25 8 -8 13 -22 10 -33 -9 -35 4 -47 49 -47 53 0 75 8 75
26 0 9 11 14 28 14 15 0 69 9 121 20 170 36 416 183 513 307 55 71 71 100 64
119 -3 8 1 14 8 14 12 0 45 64 76 145 6 16 16 81 21 144 9 107 28 171 48 171
5 0 15 -17 22 -37 12 -37 7 -229 -7 -283 -9 -33 -6 -102 4 -109 5 -3 9 -27 8
-54 -1 -45 0 -47 27 -47 15 0 27 4 27 9 0 5 10 13 21 16 15 5 18 10 9 15 -8 5
-8 9 4 13 11 5 16 1 16 -13 0 -11 3 -20 8 -20 10 0 41 69 47 107 3 18 9 43 15
57 5 14 12 67 16 118 4 51 10 100 15 108 12 22 11 -137 -2 -185 -6 -22 -14
-60 -19 -85 -8 -43 -16 -79 -20 -90 -1 -3 -2 -9 -1 -14 1 -4 -7 -24 -19 -43
-11 -19 -20 -43 -20 -53 0 -10 -5 -20 -12 -22 -9 -3 -9 -6 0 -11 9 -7 43 40
42 58 0 3 7 22 16 43 8 20 26 84 40 142 26 115 32 304 14 430 -17 116 -98 336
-173 470 -31 55 -47 93 -43 97 2 3 9 -5 16 -16 6 -12 17 -21 26 -21 20 0 29
27 14 45 -10 13 -8 15 14 15 14 0 26 5 26 11 0 17 -38 67 -113 149 -114 124
-119 129 -217 204 -117 90 -161 137 -72 77 34 -23 62 -37 62 -32z m-335 -19
c3 -5 2 -10 -4 -10 -5 0 -13 5 -16 10 -3 6 -2 10 4 10 5 0 13 -4 16 -10z
m-1485 -143 c0 -2 -12 -14 -27 -28 l-28 -24 24 28 c23 25 31 32 31 24z m2717
-82 c95 -143 188 -376 228 -570 45 -224 46 -529 0 -745 -94 -450 -334 -850
-674 -1122 -134 -107 -242 -170 -426 -248 -55 -23 -119 -51 -142 -61 -49 -22
-59 -23 -66 -7 -3 8 5 14 19 14 13 1 45 12 71 24 106 49 178 86 189 95 15 14
49 38 116 82 66 44 198 152 198 163 0 4 16 22 35 41 93 89 145 145 145 155 0
6 22 35 49 63 61 64 86 110 95 175 4 27 10 56 13 65 4 14 3 14 -6 1 -6 -8 -11
-11 -11 -5 0 5 -22 -15 -50 -44 -27 -29 -50 -57 -50 -62 0 -15 -170 -201 -244
-267 -39 -35 -116 -93 -171 -130 -99 -66 -333 -177 -432 -206 l-53 -15 0 44
c0 42 1 44 31 43 17 -1 34 4 38 10 7 11 101 59 161 82 19 7 44 21 55 30 19 17
51 32 68 34 5 1 19 13 30 27 12 14 39 33 59 42 20 10 48 30 61 45 14 15 72 79
130 142 58 63 121 135 140 160 37 48 121 195 133 232 4 13 10 25 14 28 12 9
60 114 60 132 0 11 7 33 16 49 80 155 134 571 105 805 -19 157 -88 369 -177
547 -19 37 -32 67 -29 67 20 0 239 -378 286 -493 15 -38 25 -53 30 -44 15 25
-39 183 -108 322 -11 22 -23 53 -27 68 -6 26 -5 27 14 17 16 -9 20 -8 20 4 0
15 -69 150 -96 191 -20 29 -17 44 12 57 20 9 30 9 45 0 17 -11 19 -9 19 19 0
46 18 33 77 -56z m-2839 -47 c-35 -39 -71 -74 -79 -76 -8 -2 20 30 61 72 41
42 76 76 79 76 2 0 -25 -32 -61 -72z m1593 6 c3 -21 9 -47 13 -56 9 -20 -20
-38 -61 -38 -62 0 -71 54 -18 107 19 19 40 33 47 31 7 -3 16 -22 19 -44z
m-601 -19 c-41 -8 -93 -14 -114 -14 -39 -1 -175 -50 -270 -98 -65 -33 -184
-123 -237 -180 -26 -29 -38 -37 -34 -24 3 12 4 21 2 21 -13 0 -138 -172 -174
-239 -35 -67 -29 -16 8 57 33 68 186 242 276 316 69 57 245 157 293 167 19 4
100 7 180 7 l145 0 -75 -13z m-235 -146 c-81 -47 -192 -135 -242 -193 -32 -38
-95 -158 -91 -174 3 -11 -29 -67 -46 -81 -14 -11 -16 -11 -16 5 0 16 -2 17
-10 4 -7 -11 -12 -12 -21 -3 -8 8 -8 17 2 34 11 20 14 21 17 7 3 -16 5 -16 23
0 10 9 19 22 19 29 0 24 82 169 127 226 47 60 116 110 218 159 88 41 100 34
20 -13z m690 13 c-3 -3 -11 0 -18 7 -9 10 -8 11 6 5 10 -3 15 -9 12 -12z
m-435 -71 c0 -14 -10 -20 -44 -24 -65 -9 -202 -77 -275 -136 -35 -28 -66 -51
-68 -51 -2 0 5 12 17 27 36 46 120 104 215 148 124 59 155 66 155 36z m40 -61
c-8 -5 -22 -9 -30 -9 -10 0 -8 3 5 9 27 12 43 12 25 0z m265 -9 c196 -41 310
-95 410 -196 118 -118 179 -268 179 -440 0 -87 -4 -109 -29 -170 -81 -198
-201 -312 -427 -407 -76 -32 -188 -53 -198 -38 -3 5 -6 22 -5 37 0 26 5 29 55
40 l55 11 -98 1 c-310 3 -530 136 -663 402 -52 103 -63 180 -40 272 37 147
116 272 224 350 65 48 161 96 197 100 17 2 37 7 45 12 45 28 213 43 295 26z
m-1472 -116 c-9 -19 -18 -33 -20 -31 -6 6 19 66 28 66 5 0 1 -16 -8 -35z m-44
-151 c-11 -54 -24 -144 -30 -199 -14 -136 -20 -142 -14 -15 5 99 17 178 45
279 20 76 20 38 -1 -65z m475 59 c-3 -16 -11 -44 -19 -63 -7 -19 -18 -55 -25
-78 -17 -66 -22 -45 -6 30 12 59 42 138 52 138 3 0 2 -12 -2 -27z m100 -27
c-3 -9 -10 -16 -15 -16 -5 0 -4 9 3 20 14 22 21 20 12 -4z m-180 -280 c-12
-84 -24 -122 -24 -80 0 22 18 128 26 157 12 39 11 9 -2 -77z m-27 -173 c-3
-10 -5 -2 -5 17 0 19 2 27 5 18 2 -10 2 -26 0 -35z m1839 -105 c-5 -58 -13
-91 -27 -110 -10 -15 -19 -34 -19 -42 0 -23 -80 -154 -107 -176 -33 -26 -53
-26 -27 0 35 35 44 49 44 67 -1 15 -5 13 -23 -9 -13 -16 -27 -28 -32 -28 -5 0
-20 -10 -34 -22 -25 -23 -25 -23 2 14 15 20 27 41 27 45 0 14 40 96 55 113 7
8 18 34 25 58 6 24 20 58 31 75 10 18 19 44 19 59 0 20 6 28 23 31 52 10 50
13 43 -75z m-1801 -178 c35 -109 82 -207 140 -293 25 -38 41 -66 36 -63 -6 4
-37 47 -69 95 -92 137 -154 318 -151 439 2 57 2 57 9 -18 5 -41 20 -113 35
-160z m1565 -210 c0 -11 -48 -45 -55 -38 -6 6 33 48 45 48 6 0 10 -4 10 -10z
m-2460 -155 c7 -27 21 -74 31 -104 11 -29 18 -55 16 -58 -6 -5 -43 98 -62 172
-8 32 -14 80 -14 105 l1 45 9 -55 c4 -30 13 -77 19 -105z m526 -57 c43 -86
118 -210 145 -238 8 -8 39 -44 69 -80 82 -96 135 -148 230 -222 47 -38 90 -72
97 -78 7 -6 57 -37 113 -71 55 -33 100 -62 100 -65 0 -6 -96 43 -145 74 -138
90 -245 175 -342 275 -143 147 -224 265 -296 432 -37 86 -60 156 -30 95 9 -19
36 -74 59 -122z m-653 -103 c17 -27 46 -69 65 -92 l34 -43 -26 0 c-17 0 -26 5
-26 15 0 9 -18 40 -39 69 -21 29 -46 74 -55 100 -20 59 -20 70 1 31 8 -16 29
-52 46 -80z m3062 -65 c-10 -11 -20 -18 -23 -15 -3 3 3 14 13 25 10 11 20 18
23 15 3 -3 -3 -14 -13 -25z m-650 -732 c-112 -37 -543 -35 -630 4 -14 6 -10 7
15 3 19 -4 150 -8 290 -11 207 -4 264 -2 300 9 25 8 54 15 65 15 11 0 -7 -9
-40 -20z m-656 -254 c9 -8 -65 -2 -84 6 -13 6 -2 7 30 3 28 -3 52 -7 54 -9z
m565 -4 c-11 -4 -81 -10 -155 -13 l-134 -5 140 12 c179 16 174 16 149 6z"/>
<path d="M1768 3603 c6 -2 18 -2 25 0 6 3 1 5 -13 5 -14 0 -19 -2 -12 -5z"/>
<path d="M1690 3580 c0 -5 4 -10 9 -10 6 0 13 5 16 10 3 6 -1 10 -9 10 -9 0
-16 -4 -16 -10z"/>
<path d="M1543 3247 c-29 -13 -55 -26 -59 -29 -3 -4 -29 -18 -57 -33 -49 -25
-172 -149 -234 -238 -35 -49 -27 -56 14 -12 83 92 171 181 191 195 12 8 17 17
12 20 -12 7 145 87 188 95 17 4 32 11 32 16 0 15 -32 10 -87 -14z"/>
<path d="M3205 1899 c-4 -6 -5 -12 -2 -15 2 -3 7 2 10 11 7 17 1 20 -8 4z"/>
<path d="M3190 1861 c0 -5 7 -11 14 -14 10 -4 13 -1 9 9 -6 15 -23 19 -23 5z"/>
<path d="M3170 1813 c0 -10 -25 -55 -54 -100 -30 -46 -52 -83 -49 -83 15 0 74
71 67 81 -4 7 -3 9 3 6 6 -4 15 4 21 17 14 31 26 96 18 96 -3 0 -6 -8 -6 -17z"/>
<path d="M3322 1610 c-29 -59 -30 -81 -2 -37 36 55 53 97 41 97 -5 0 -22 -27
-39 -60z"/>
<path d="M3225 1460 c3 -5 8 -10 11 -10 2 0 4 5 4 10 0 6 -5 10 -11 10 -5 0
-7 -4 -4 -10z"/>
<path d="M2885 1310 c-4 -6 7 -10 25 -10 18 0 29 4 25 10 -3 6 -15 10 -25 10
-10 0 -22 -4 -25 -10z"/>
<path d="M2150 2684 c-61 -16 -165 -71 -221 -115 -79 -62 -149 -212 -149 -315
1 -150 92 -291 237 -367 91 -48 168 -67 268 -67 260 0 492 172 520 386 8 57
-12 150 -47 223 -31 65 -138 173 -206 209 -111 59 -280 79 -402 46z m241 -264
c78 -39 139 -115 139 -172 0 -16 -7 -9 -24 27 -32 67 -58 92 -133 127 -51 24
-73 29 -118 26 -55 -3 -75 6 -32 16 43 9 125 -3 168 -24z m-263 -67 c-17 -39
-20 -60 -15 -120 3 -40 4 -73 1 -73 -2 0 -11 14 -20 32 -26 50 -15 140 21 178
16 17 30 30 31 30 2 0 -6 -21 -18 -47z m175 30 c-7 -2 -19 -2 -25 0 -7 3 -2 5
12 5 14 0 19 -2 13 -5z m74 -23 c9 0 13 -6 9 -15 -3 -8 2 -21 10 -30 37 -37
-15 -128 -80 -140 -44 -9 -77 1 -69 21 4 11 9 12 18 4 22 -19 71 13 79 51 10
53 7 86 -10 93 -8 3 -12 11 -9 17 4 6 14 8 22 5 8 -3 21 -6 30 -6z m-67 -20
c15 -8 17 -18 13 -52 -3 -24 -10 -49 -16 -55 -13 -18 -47 -16 -47 2 0 8 6 12
14 9 20 -8 28 10 13 30 -11 15 -14 14 -38 -8 -33 -30 -39 -26 -29 20 4 18 5
34 1 34 -11 1 44 29 57 30 7 0 22 -4 32 -10z m120 -153 c0 -2 -10 -12 -21 -23
-22 -19 -22 -19 -8 4 12 19 29 30 29 19z"/>
<path d="M2901 2083 c-1 -6 -4 -20 -7 -30 -5 -17 -5 -17 6 0 6 10 9 23 6 30
-3 9 -5 9 -5 0z"/>
<path d="M2852 1972 c-17 -31 -47 -74 -68 -95 -43 -43 -31 -51 14 -9 28 27 98
150 89 158 -2 2 -18 -22 -35 -54z"/>
<path d="M2543 1721 c-75 -33 -91 -46 -43 -36 45 10 116 41 124 54 11 17 -13
11 -81 -18z"/>
<path d="M2515 1655 c-25 -12 -26 -14 -5 -9 14 4 29 10 35 15 12 12 5 11 -30
-6z"/>
<path d="M2458 1633 c7 -3 16 -2 19 1 4 3 -2 6 -13 5 -11 0 -14 -3 -6 -6z"/>
<path d="M1478 4423 c-9 -2 -19 -11 -22 -19 -4 -12 -2 -12 14 -4 15 8 40 33
28 29 -2 -1 -10 -3 -20 -6z"/>
<path d="M1258 4373 c7 -3 16 -2 19 1 4 3 -2 6 -13 5 -11 0 -14 -3 -6 -6z"/>
<path d="M1318 4373 c18 -2 45 -2 60 0 15 2 0 4 -33 4 -33 0 -45 -2 -27 -4z"/>
</g>
</svg>
