<?xml version="1.0" standalone="no"?>
<!DOCTYPE svg PUBLIC "-//W3C//DTD SVG 20010904//EN"
 "http://www.w3.org/TR/2001/REC-SVG-20010904/DTD/svg10.dtd">
<svg version="1.0" xmlns="http://www.w3.org/2000/svg"
 width="54.000000pt" height="43.000000pt" viewBox="0 0 54.000000 43.000000"
 preserveAspectRatio="xMidYMid meet">

<g transform="translate(0.000000,43.000000) scale(0.100000,-0.100000)"
fill="#000000" stroke="none">
<path d="M56 394 c-13 -12 -16 -41 -16 -152 0 -75 5 -144 10 -152 7 -12 37
-16 135 -18 120 -4 125 -3 125 17 0 19 -7 21 -112 23 l-113 3 0 125 0 125 165
0 165 0 3 -72 c3 -65 5 -73 22 -73 18 0 20 7 20 73 0 119 3 117 -210 117 -149
0 -181 -3 -194 -16z"/>
<path d="M418 148 c-3 -29 -7 -33 -36 -36 -45 -5 -41 -36 6 -40 28 -3 32 -7
32 -33 0 -22 5 -29 20 -29 16 0 20 7 20 30 0 27 3 30 30 30 23 0 30 4 30 20 0
15 -7 20 -29 20 -26 0 -30 4 -33 32 -4 47 -35 51 -40 6z"/>
</g>
</svg>
