<?xml version="1.0" standalone="no"?>
<!DOCTYPE svg PUBLIC "-//W3C//DTD SVG 20010904//EN"
 "http://www.w3.org/TR/2001/REC-SVG-20010904/DTD/svg10.dtd">
<svg version="1.0" xmlns="http://www.w3.org/2000/svg"
 width="52.000000pt" height="52.000000pt" viewBox="0 0 52.000000 52.000000"
 preserveAspectRatio="xMidYMid meet">

<g transform="translate(0.000000,52.000000) scale(0.100000,-0.100000)"
fill="#000000" stroke="none">
<path d="M40 270 l0 -210 96 0 c143 0 134 -13 134 205 0 154 -3 186 -16 199
-12 12 -38 16 -115 16 l-99 0 0 -210z m190 125 l0 -45 -75 0 -75 0 0 45 0 45
75 0 75 0 0 -45z m0 -125 l0 -40 -75 0 -75 0 0 40 0 40 75 0 75 0 0 -40z m0
-125 l0 -45 -75 0 -75 0 0 45 0 45 75 0 75 0 0 -45z"/>
<path d="M380 320 c0 -28 -3 -30 -35 -30 -28 0 -35 -4 -35 -20 0 -16 7 -20 35
-20 32 0 35 -2 35 -30 0 -23 4 -30 20 -30 16 0 20 7 20 30 0 27 3 30 30 30 23
0 30 4 30 20 0 16 -7 20 -30 20 -27 0 -30 3 -30 30 0 23 -4 30 -20 30 -16 0
-20 -7 -20 -30z"/>
</g>
</svg>
