<?xml version="1.0" standalone="no"?>
<!DOCTYPE svg PUBLIC "-//W3C//DTD SVG 20010904//EN"
 "http://www.w3.org/TR/2001/REC-SVG-20010904/DTD/svg10.dtd">
<svg version="1.0" xmlns="http://www.w3.org/2000/svg"
 width="64.000000pt" height="64.000000pt" viewBox="0 0 64.000000 64.000000"
 preserveAspectRatio="xMidYMid meet">

<g transform="translate(0.000000,64.000000) scale(0.100000,-0.100000)"
fill="#000000" stroke="none">
<path d="M195 582 c-73 -36 -106 -70 -140 -145 -23 -50 -27 -69 -23 -130 8
-158 114 -267 270 -275 95 -6 159 18 223 82 60 59 85 121 85 206 0 164 -114
281 -280 288 -66 3 -82 0 -135 -26z m199 -34 c55 -16 138 -99 154 -154 27 -91
5 -177 -61 -242 -99 -97 -233 -96 -332 3 -71 70 -91 145 -63 239 15 51 99 137
148 153 48 15 105 15 154 1z"/>
<path d="M220 415 c-11 -14 -7 -22 25 -55 l39 -40 -39 -40 c-37 -38 -38 -41
-22 -57 16 -16 19 -15 57 22 l40 39 40 -39 c38 -37 41 -38 57 -22 16 16 15 19
-22 57 l-39 40 39 40 c37 38 38 41 22 57 -16 16 -19 15 -57 -22 l-40 -39 -38
37 c-43 42 -45 43 -62 22z"/>
</g>
</svg>
