<?xml version="1.0" standalone="no"?>
<!DOCTYPE svg PUBLIC "-//W3C//DTD SVG 20010904//EN"
 "http://www.w3.org/TR/2001/REC-SVG-20010904/DTD/svg10.dtd">
<svg version="1.0" xmlns="http://www.w3.org/2000/svg"
 width="44.000000pt" height="44.000000pt" viewBox="0 0 44.000000 44.000000"
 preserveAspectRatio="xMidYMid meet">

<g transform="translate(0.000000,44.000000) scale(0.100000,-0.100000)"
fill="#000000" stroke="none">
<path d="M32 313 c3 -16 20 -18 188 -18 168 0 185 2 188 18 3 16 -11 17 -188
17 -177 0 -191 -1 -188 -17z"/>
<path d="M30 210 c0 -19 7 -20 190 -20 183 0 190 1 190 20 0 19 -7 20 -190 20
-183 0 -190 -1 -190 -20z"/>
<path d="M37 124 c-4 -4 -7 -13 -7 -21 0 -10 38 -13 191 -13 176 0 190 1 187
18 -3 15 -21 17 -184 20 -99 1 -183 -1 -187 -4z"/>
</g>
</svg>
